G04 #@! TF.GenerationSoftware,KiCad,Pcbnew,(5.1.10)-1*
G04 #@! TF.CreationDate,2021-07-21T11:29:09+09:00*
G04 #@! TF.ProjectId,trifecta,74726966-6563-4746-912e-6b696361645f,rev?*
G04 #@! TF.SameCoordinates,Original*
G04 #@! TF.FileFunction,Soldermask,Top*
G04 #@! TF.FilePolarity,Negative*
%FSLAX46Y46*%
G04 Gerber Fmt 4.6, Leading zero omitted, Abs format (unit mm)*
G04 Created by KiCad (PCBNEW (5.1.10)-1) date 2021-07-21 11:29:09*
%MOMM*%
%LPD*%
G01*
G04 APERTURE LIST*
%ADD10C,4.007800*%
%ADD11C,1.770000*%
%ADD12C,3.068000*%
%ADD13C,2.020000*%
%ADD14O,1.720000X1.720000*%
%ADD15O,1.220000X2.320000*%
%ADD16C,0.620000*%
G04 APERTURE END LIST*
D10*
X253100340Y-91187186D03*
D11*
X248020340Y-91187186D03*
X258180340Y-91187186D03*
D10*
X113040160Y-81554320D03*
D11*
X108071170Y-80498129D03*
X118009150Y-82610511D03*
D10*
X70424040Y-53009800D03*
D11*
X65455050Y-51953609D03*
X75393030Y-54065991D03*
D10*
X49911000Y-53030120D03*
D11*
X44831000Y-53030120D03*
X54991000Y-53030120D03*
D10*
X131660900Y-85509100D03*
D11*
X126691910Y-84452909D03*
X136629890Y-86565291D03*
D10*
X304581560Y-34005520D03*
D11*
X299501560Y-34005520D03*
X309661560Y-34005520D03*
D10*
X116179600Y-101701600D03*
D11*
X111210610Y-100645409D03*
X121148590Y-102757791D03*
D12*
X103081267Y-106058512D03*
X126373407Y-111009410D03*
D10*
X106249841Y-91151543D03*
X129541981Y-96102440D03*
X246303800Y-72125840D03*
D11*
X241223800Y-72125840D03*
X251383800Y-72125840D03*
D10*
X231170480Y-53070760D03*
D11*
X226201490Y-54126951D03*
X236139470Y-52014569D03*
D10*
X207167480Y-77627480D03*
D11*
X202198490Y-78683671D03*
X212136470Y-76571289D03*
D10*
X212526880Y-57023000D03*
D11*
X207557890Y-58079191D03*
X217495870Y-55966809D03*
D10*
X36208970Y-63835280D03*
X12396470Y-63835280D03*
D12*
X36208970Y-79075280D03*
X12396470Y-79075280D03*
D11*
X29382720Y-72090280D03*
X19222720Y-72090280D03*
D10*
X24302720Y-72090280D03*
X18946850Y-53032890D03*
D11*
X13866850Y-53032890D03*
X24026850Y-53032890D03*
D10*
X24810720Y-14940280D03*
D11*
X19730720Y-14940280D03*
X29890720Y-14940280D03*
D10*
X166654480Y-47284640D03*
D11*
X161685490Y-48340831D03*
X171623470Y-46228449D03*
X256748280Y-53065680D03*
X246588280Y-53065680D03*
D10*
X251668280Y-53065680D03*
X305109880Y-14970760D03*
D11*
X300029880Y-14970760D03*
X310189880Y-14970760D03*
D10*
X286095440Y-14970760D03*
D11*
X281015440Y-14970760D03*
X291175440Y-14970760D03*
D10*
X346009840Y-60741040D03*
D11*
X340929840Y-60741040D03*
X351089840Y-60741040D03*
D10*
X341234640Y-37881040D03*
D11*
X336154640Y-37881040D03*
X346314640Y-37881040D03*
D10*
X336510240Y-15021040D03*
D11*
X331430240Y-15021040D03*
X341590240Y-15021040D03*
D10*
X225806000Y-73670160D03*
D11*
X220837010Y-74726351D03*
X230774990Y-72613969D03*
D10*
X188523880Y-81594960D03*
D11*
X183554890Y-82651151D03*
X193492870Y-80538769D03*
D10*
X169905680Y-85557360D03*
D11*
X164936690Y-86613551D03*
X174874670Y-84501169D03*
D10*
X193898520Y-60970160D03*
D11*
X188929530Y-62026351D03*
X198867510Y-59913969D03*
D10*
X175270160Y-64947800D03*
D11*
X170301170Y-66003991D03*
X180239150Y-63891609D03*
D10*
X222544640Y-35417760D03*
D11*
X217575650Y-36473951D03*
X227513630Y-34361569D03*
D10*
X203916280Y-39364920D03*
D11*
X198947290Y-40421111D03*
X208885270Y-38308729D03*
D10*
X185272680Y-43322240D03*
D11*
X180303690Y-44378431D03*
X190241670Y-42266049D03*
D10*
X227914200Y-14818360D03*
D11*
X222945210Y-15874551D03*
X232883190Y-13762169D03*
D10*
X209265520Y-18790920D03*
D11*
X204296530Y-19847111D03*
X214234510Y-17734729D03*
D10*
X190632080Y-22733000D03*
D11*
X185663090Y-23789191D03*
X195601070Y-21676809D03*
D10*
X171998640Y-26685240D03*
D11*
X167029650Y-27741431D03*
X176967630Y-25629049D03*
D10*
X94406720Y-77576680D03*
D11*
X89437730Y-76520489D03*
X99375710Y-78632871D03*
D10*
X75773280Y-73629520D03*
D11*
X70804290Y-72573329D03*
X80742270Y-74685711D03*
D10*
X126324360Y-64907160D03*
D11*
X121355370Y-63850969D03*
X131293350Y-65963351D03*
D10*
X107690920Y-60939680D03*
D11*
X102721930Y-59883489D03*
X112659910Y-61995871D03*
D10*
X89062560Y-56977280D03*
D11*
X84093570Y-55921089D03*
X94031550Y-58033471D03*
D10*
X125623320Y-45283120D03*
D11*
X120654330Y-44226929D03*
X130592310Y-46339311D03*
D10*
X106979720Y-41320720D03*
D11*
X102010730Y-40264529D03*
X111948710Y-42376911D03*
D10*
X88356440Y-37358320D03*
D11*
X83387450Y-36302129D03*
X93325430Y-38414511D03*
D10*
X69723000Y-33401000D03*
D11*
X64754010Y-32344809D03*
X74691990Y-34457191D03*
D10*
X138892280Y-28641040D03*
D11*
X133923290Y-27584849D03*
X143861270Y-29697231D03*
D10*
X120263920Y-24668480D03*
D11*
X115294930Y-23612289D03*
X125232910Y-25724671D03*
D10*
X101630480Y-20716240D03*
D11*
X96661490Y-19660049D03*
X106599470Y-21772431D03*
D10*
X82991960Y-16758920D03*
D11*
X78022970Y-15702729D03*
X87960950Y-17815111D03*
D10*
X62489080Y-12806680D03*
D11*
X57409080Y-12806680D03*
X67569080Y-12806680D03*
D10*
X341206590Y-95949686D03*
D11*
X336126590Y-95949686D03*
X346286590Y-95949686D03*
D10*
X322156590Y-95949686D03*
D11*
X317076590Y-95949686D03*
X327236590Y-95949686D03*
D10*
X303106590Y-95949686D03*
D11*
X298026590Y-95949686D03*
X308186590Y-95949686D03*
D10*
X322156590Y-76899686D03*
D11*
X317076590Y-76899686D03*
X327236590Y-76899686D03*
D10*
X265358880Y-72120760D03*
D11*
X260278880Y-72120760D03*
X270438880Y-72120760D03*
X60345320Y-72080120D03*
X50185320Y-72080120D03*
D10*
X55265320Y-72080120D03*
X270708120Y-53065680D03*
D11*
X265628120Y-53065680D03*
X275788120Y-53065680D03*
X285810960Y-34020760D03*
X275650960Y-34020760D03*
D10*
X280730960Y-34020760D03*
X261665720Y-34025840D03*
D11*
X256585720Y-34025840D03*
X266745720Y-34025840D03*
D10*
X243042440Y-32964120D03*
D11*
X237962440Y-32964120D03*
X248122440Y-32964120D03*
D10*
X49204880Y-33975040D03*
D11*
X44124880Y-33975040D03*
X54284880Y-33975040D03*
D10*
X267025120Y-14975840D03*
D11*
X261945120Y-14975840D03*
X272105120Y-14975840D03*
D10*
X248396760Y-12827000D03*
D11*
X243316760Y-12827000D03*
X253476760Y-12827000D03*
D10*
X43860720Y-14945360D03*
D11*
X38780720Y-14945360D03*
X48940720Y-14945360D03*
D10*
X190195200Y-100721160D03*
D11*
X185226210Y-101777351D03*
X195164190Y-99664969D03*
D12*
X180001393Y-110028970D03*
X203293533Y-105078072D03*
D10*
X176832819Y-95122000D03*
X200124959Y-90171103D03*
G36*
G01*
X344459040Y-69098640D02*
X342459040Y-69098640D01*
G75*
G02*
X342449040Y-69088640I0J10000D01*
G01*
X342449040Y-67088640D01*
G75*
G02*
X342459040Y-67078640I10000J0D01*
G01*
X344459040Y-67078640D01*
G75*
G02*
X344469040Y-67088640I0J-10000D01*
G01*
X344469040Y-69088640D01*
G75*
G02*
X344459040Y-69098640I-10000J0D01*
G01*
G37*
D13*
X345959040Y-68088640D03*
X348459040Y-68088640D03*
G36*
G01*
X341359040Y-62198640D02*
X339359040Y-62198640D01*
G75*
G02*
X339349040Y-62188640I0J10000D01*
G01*
X339349040Y-58988640D01*
G75*
G02*
X339359040Y-58978640I10000J0D01*
G01*
X341359040Y-58978640D01*
G75*
G02*
X341369040Y-58988640I0J-10000D01*
G01*
X341369040Y-62188640D01*
G75*
G02*
X341359040Y-62198640I-10000J0D01*
G01*
G37*
G36*
G01*
X352559040Y-62198640D02*
X350559040Y-62198640D01*
G75*
G02*
X350549040Y-62188640I0J10000D01*
G01*
X350549040Y-58988640D01*
G75*
G02*
X350559040Y-58978640I10000J0D01*
G01*
X352559040Y-58978640D01*
G75*
G02*
X352569040Y-58988640I0J-10000D01*
G01*
X352569040Y-62188640D01*
G75*
G02*
X352559040Y-62198640I-10000J0D01*
G01*
G37*
X343459040Y-53588640D03*
X348459040Y-53588640D03*
G36*
G01*
X339709330Y-46323650D02*
X337709330Y-46323650D01*
G75*
G02*
X337699330Y-46313650I0J10000D01*
G01*
X337699330Y-44313650D01*
G75*
G02*
X337709330Y-44303650I10000J0D01*
G01*
X339709330Y-44303650D01*
G75*
G02*
X339719330Y-44313650I0J-10000D01*
G01*
X339719330Y-46313650D01*
G75*
G02*
X339709330Y-46323650I-10000J0D01*
G01*
G37*
X341209330Y-45313650D03*
X343709330Y-45313650D03*
G36*
G01*
X336609330Y-39423650D02*
X334609330Y-39423650D01*
G75*
G02*
X334599330Y-39413650I0J10000D01*
G01*
X334599330Y-36213650D01*
G75*
G02*
X334609330Y-36203650I10000J0D01*
G01*
X336609330Y-36203650D01*
G75*
G02*
X336619330Y-36213650I0J-10000D01*
G01*
X336619330Y-39413650D01*
G75*
G02*
X336609330Y-39423650I-10000J0D01*
G01*
G37*
G36*
G01*
X347809330Y-39423650D02*
X345809330Y-39423650D01*
G75*
G02*
X345799330Y-39413650I0J10000D01*
G01*
X345799330Y-36213650D01*
G75*
G02*
X345809330Y-36203650I10000J0D01*
G01*
X347809330Y-36203650D01*
G75*
G02*
X347819330Y-36213650I0J-10000D01*
G01*
X347819330Y-39413650D01*
G75*
G02*
X347809330Y-39423650I-10000J0D01*
G01*
G37*
X338709330Y-30813650D03*
X343709330Y-30813650D03*
G36*
G01*
X334934130Y-23662440D02*
X332934130Y-23662440D01*
G75*
G02*
X332924130Y-23652440I0J10000D01*
G01*
X332924130Y-21652440D01*
G75*
G02*
X332934130Y-21642440I10000J0D01*
G01*
X334934130Y-21642440D01*
G75*
G02*
X334944130Y-21652440I0J-10000D01*
G01*
X334944130Y-23652440D01*
G75*
G02*
X334934130Y-23662440I-10000J0D01*
G01*
G37*
X336434130Y-22652440D03*
X338934130Y-22652440D03*
G36*
G01*
X331834130Y-16762440D02*
X329834130Y-16762440D01*
G75*
G02*
X329824130Y-16752440I0J10000D01*
G01*
X329824130Y-13552440D01*
G75*
G02*
X329834130Y-13542440I10000J0D01*
G01*
X331834130Y-13542440D01*
G75*
G02*
X331844130Y-13552440I0J-10000D01*
G01*
X331844130Y-16752440D01*
G75*
G02*
X331834130Y-16762440I-10000J0D01*
G01*
G37*
G36*
G01*
X343034130Y-16762440D02*
X341034130Y-16762440D01*
G75*
G02*
X341024130Y-16752440I0J10000D01*
G01*
X341024130Y-13552440D01*
G75*
G02*
X341034130Y-13542440I10000J0D01*
G01*
X343034130Y-13542440D01*
G75*
G02*
X343044130Y-13552440I0J-10000D01*
G01*
X343044130Y-16752440D01*
G75*
G02*
X343034130Y-16762440I-10000J0D01*
G01*
G37*
X333934130Y-8152440D03*
X338934130Y-8152440D03*
D14*
X167487600Y-8651240D03*
X170027600Y-8651240D03*
X167487600Y-6111240D03*
X170027600Y-6111240D03*
X167487600Y-3571240D03*
G36*
G01*
X170887600Y-2721240D02*
X170887600Y-4421240D01*
G75*
G02*
X170877600Y-4431240I-10000J0D01*
G01*
X169177600Y-4431240D01*
G75*
G02*
X169167600Y-4421240I0J10000D01*
G01*
X169167600Y-2721240D01*
G75*
G02*
X169177600Y-2711240I10000J0D01*
G01*
X170877600Y-2711240D01*
G75*
G02*
X170887600Y-2721240I0J-10000D01*
G01*
G37*
D15*
X148636840Y862760D03*
X159786840Y862760D03*
X148636840Y5462760D03*
X159786840Y5462760D03*
D16*
X150461840Y782760D03*
X157961840Y782760D03*
D10*
X295584880Y-14960600D03*
D11*
X290504880Y-14960600D03*
X300664880Y-14960600D03*
D12*
X283678630Y-21945600D03*
X307491130Y-21945600D03*
D10*
X283678630Y-6705600D03*
X307491130Y-6705600D03*
X301655480Y-53070760D03*
D11*
X296575480Y-53070760D03*
X306735480Y-53070760D03*
D12*
X289749230Y-60055760D03*
X313561730Y-60055760D03*
D10*
X289749230Y-44815760D03*
X313561730Y-44815760D03*
X222818960Y-93786960D03*
D11*
X217849970Y-94843151D03*
X227787950Y-92730769D03*
D10*
X78927960Y-93746320D03*
D11*
X73958970Y-92690129D03*
X83896950Y-94802511D03*
D10*
X276912840Y-91187186D03*
D11*
X271832840Y-91187186D03*
X281992840Y-91187186D03*
D10*
X38602920Y-91191080D03*
D11*
X33522920Y-91191080D03*
X43682920Y-91191080D03*
D10*
X14782800Y-91165680D03*
D11*
X9702800Y-91165680D03*
X19862800Y-91165680D03*
D10*
X291531040Y-72105520D03*
D11*
X286451040Y-72105520D03*
X296611040Y-72105520D03*
D10*
X23723100Y-53036386D03*
D11*
X18643100Y-53036386D03*
X28803100Y-53036386D03*
D10*
X25410160Y-33985200D03*
D11*
X20330160Y-33985200D03*
X30490160Y-33985200D03*
M02*
