M48
; DRILL file {KiCad (5.1.9)-1} date 07/09/21 19:50:10
; FORMAT={-:-/ absolute / inch / decimal}
; #@! TF.CreationDate,2021-07-09T19:50:10+09:00
; #@! TF.GenerationSoftware,Kicad,Pcbnew,(5.1.9)-1
; #@! TF.FileFunction,Plated,1,2,PTH
FMAT,2
INCH
T1C0.0157
T2C0.0197
T3C0.0394
T4C0.0579
%
G90
G05
T1
X0.158Y-0.532
X0.184Y-0.378
X0.2819Y-3.7729
X0.2824Y-1.5254
X0.2824Y-2.2754
X0.2824Y-3.0214
X0.3984Y-3.8314
X0.45Y-0.778
X0.4742Y-0.7102
X0.5079Y-0.825
X0.642Y-1.6241
X0.6764Y-0.8354
X0.6764Y-1.5874
X0.6936Y-0.7734
X0.7044Y-2.3354
X0.7626Y-1.0218
X0.7684Y-3.0854
X0.7904Y-3.7754
X1.1149Y-1.7049
X1.1176Y-2.2709
X1.133Y-2.3371
X1.1464Y-3.8614
X1.1704Y-3.0214
X1.2049Y-1.5192
X1.221Y-1.6103
X1.2624Y-3.0234
X1.3024Y-0.8774
X1.3344Y-3.8334
X1.405Y-2.7688
X1.4287Y-0.8354
X1.5304Y-3.0234
X1.5554Y-1.6624
X1.6144Y-2.3074
X1.6284Y-1.5814
X1.6826Y-1.907
X1.7004Y-3.7714
X1.7484Y-2.3374
X1.7583Y-1.8044
X1.9205Y-0.798
X1.9295Y-3.8247
X1.9528Y-4.0597
X2.0164Y-3.0834
X2.104Y-3.218
X2.1265Y-1.5262
X2.1394Y-3.4458
X2.1417Y-2.2738
X2.1544Y-0.7394
X2.202Y-3.458
X2.2725Y-0.751
X2.3102Y-1.5224
X2.3257Y-1.6366
X2.3616Y-1.707
X2.3704Y-2.3854
X2.3864Y-3.0694
X2.4024Y-1.0834
X2.4024Y-1.5574
X2.5165Y-1.518
X2.5684Y-1.8874
X2.609Y-2.374
X2.6141Y-3.0734
X2.6184Y-3.2681
X2.634Y-0.6895
X2.7024Y-0.8354
X2.7349Y-3.1349
X2.7584Y-1.8898
X2.836Y-3.198
X2.8406Y-1.8271
X2.8574Y-3.8849
X2.8915Y-1.5265
X2.9024Y-0.8454
X2.9084Y-1.6354
X2.909Y-2.286
X2.9385Y-3.9785
X2.9455Y-2.3715
X3.0304Y-0.8914
X3.0374Y-2.0292
X3.0899Y-2.5634
X3.1265Y-3.1295
X3.1821Y-1.8461
X3.1839Y-1.6674
X3.1844Y-2.4734
X3.2476Y-2.0101
X3.2624Y-1.6974
X3.289Y-2.4625
X3.2981Y-1.8541
X3.3574Y-3.9399
X3.3799Y-4.0174
X3.401Y-0.863
X3.4164Y-1.9174
X3.4777Y-3.2801
X3.5665Y-3.3215
X3.6644Y-1.7354
X3.6749Y-1.0174
X3.7284Y-2.5054
X3.7574Y-1.0199
X3.9224Y-1.4219
X3.9224Y-1.8224
X3.9224Y-1.9939
X3.9224Y-2.5824
X3.9266Y-3.3582
X3.9424Y-3.3024
X3.998Y-1.832
X4.0181Y-1.9706
X4.0895Y-2.6875
X4.0974Y-3.4249
X4.135Y-4.4002
X4.1454Y-2.0066
X4.1624Y-1.0849
X4.1674Y-1.0299
X4.196Y-1.172
X4.25Y-2.1538
X4.328Y-3.5045
X4.344Y-4.1525
X4.3598Y-1.7251
X4.3799Y-1.8974
X4.388Y-2.605
X4.3974Y-1.8449
X4.425Y-1.0924
X4.4274Y-1.2045
X4.4405Y-1.8535
X4.5035Y-1.1785
X4.515Y-4.3335
X4.5636Y-2.8251
X4.6598Y-2.6731
X4.6699Y-1.8999
X4.6874Y-3.4449
X4.6879Y-2.7344
X4.7275Y-2.001
X4.7449Y-2.6774
X4.747Y-2.232
X4.756Y-2.7715
X4.8145Y-4.186
X4.8475Y-2.3045
X4.85Y-0.338
X4.8549Y-4.2674
X4.8765Y-1.1775
X4.8975Y-3.6965
X4.8999Y-3.4324
X4.9149Y-1.2274
X4.9555Y-3.5695
X5.008Y-0.402
X5.081Y-2.056
X5.1065Y-0.7062
X5.1084Y-2.2014
X5.1149Y-1.9574
X5.1474Y-1.2349
X5.1599Y-1.1074
X5.196Y-2.7625
X5.241Y-1.3345
X5.3516Y-2.2776
X5.3794Y-2.8137
X5.3826Y-4.2436
X5.3841Y-2.0766
X5.4074Y-3.5549
X5.4106Y-2.7258
X5.4449Y-2.8599
X5.4561Y-2.5641
X5.4566Y-2.6306
X5.4606Y-1.6821
X5.4645Y-3.6024
X5.4646Y-2.2486
X5.4731Y-1.626
X5.4921Y-2.3711
X5.4956Y-2.7391
X5.5074Y-1.8484
X5.5074Y-1.9449
X5.5099Y-2.1499
X5.5146Y-2.6226
X5.5263Y-4.1803
X5.5371Y-2.4186
X5.5474Y-2.8099
X5.5501Y-1.8975
X5.5549Y-2.0299
X5.5581Y-2.1541
X5.5666Y-3.0921
X5.5758Y-2.4869
X5.5951Y-1.2454
X5.6156Y-2.8426
X5.6331Y-2.1307
X5.668Y-1.5138
X5.7297Y-1.9254
X5.7411Y-3.1351
X5.766Y-2.6716
X5.7702Y-1.4686
X5.7856Y-3.4061
X5.7911Y-4.2436
X5.7945Y-2.7005
X5.796Y-4.34
X5.82Y-4.392
X5.844Y-4.464
X5.8449Y-0.5986
X5.8775Y-1.8849
X5.8922Y-2.034
X5.9071Y-1.0576
X5.9276Y-1.9674
X5.937Y-1.1855
X5.9375Y-0.1103
X5.9406Y-0.9274
X5.9499Y-0.9771
X5.968Y-0.5621
X5.972Y-0.4716
X5.9756Y-1.9646
X5.9835Y-2.6091
X6.0012Y-0.74
X6.0109Y-1.236
X6.0374Y-3.4849
X6.0674Y-2.8016
X6.0751Y-2.9061
X6.0821Y-2.7466
X6.0826Y-2.6911
X6.1074Y-4.5491
X6.1256Y-1.5551
X6.1408Y-2.2349
X6.1632Y-1.284
X6.1676Y-3.1212
X6.1727Y-0.4401
X6.1865Y-0.1133
X6.1934Y-1.236
X6.2077Y-1.7772
X6.2152Y-0.7484
X6.2486Y-2.5076
X6.2876Y-0.9813
X6.2981Y-0.9201
X6.3053Y-2.2521
X6.321Y-2.0825
X6.3588Y-0.5628
X6.4029Y-2.2884
X6.4235Y-2.1215
X6.4374Y-3.5299
X6.4381Y-1.0966
X6.4698Y-1.1568
X6.4888Y-1.6062
X6.5002Y-0.6048
X6.5224Y-3.6474
X6.5544Y-0.44
X6.5835Y-1.2985
X6.649Y-1.311
X6.75Y-2.842
X6.7785Y-2.0215
X6.7972Y-0.5042
X6.802Y-2.0595
X6.8872Y-0.4392
X6.9024Y-2.0249
X6.9135Y-3.5025
X6.9611Y-0.259
X7.0174Y-1.1574
X7.0394Y-1.2254
X7.0674Y-2.9851
X7.1018Y-3.3633
X7.1215Y-2.718
X7.1435Y-1.9845
X7.1524Y-0.7697
X7.2121Y-0.7736
X7.2532Y-2.7592
X7.298Y-0.259
X7.3038Y-2.1952
X7.3195Y-4.2099
X7.3472Y-4.1671
X7.3474Y-1.1524
X7.3845Y-3.5375
X7.4349Y-2.6649
X7.518Y-1.8625
X7.5265Y-1.912
X7.606Y-0.324
X7.6166Y-0.2304
X7.6425Y-3.4055
X7.643Y-3.354
X7.708Y-4.0875
X7.7201Y-1.0881
X7.7453Y-4.1697
X7.7624Y-1.0424
X7.7624Y-2.9721
X7.8074Y-1.7524
X7.8218Y-3.3553
X7.8224Y-0.383
X7.8447Y-2.6047
X7.8449Y-2.5524
X7.9061Y-1.0906
X7.9374Y-3.3274
X7.9466Y-0.7401
X7.9685Y-1.9902
X7.9843Y-3.2661
X7.9874Y-1.0224
X8.0024Y-1.8624
X8.036Y-0.362
X8.073Y-2.4918
X8.1074Y-1.0174
X8.1351Y-2.5391
X8.1881Y-2.5201
X8.2559Y-2.728
X8.2574Y-1.7074
X8.2631Y-1.7721
X8.3693Y-3.2194
X8.4074Y-3.3124
X8.4074Y-3.8974
X8.4874Y-1.6424
X8.5094Y-0.8936
X8.5574Y-2.6674
X8.576Y-2.3845
X8.5784Y-3.9711
X8.5909Y-2.4383
X8.5974Y-1.6924
X8.63Y-0.48
X8.6328Y-0.9659
X8.6599Y-3.2049
X8.696Y-0.712
X8.7874Y-2.3724
X8.7956Y-0.8343
X8.8974Y-2.3974
X8.9286Y-1.045
X8.9753Y-1.5538
X9.0064Y-3.8293
X9.0471Y-0.6937
X9.0739Y-1.2588
X9.0781Y-3.1501
X9.1076Y-3.05
X9.1411Y-3.4623
X9.2485Y-3.406
X9.266Y-3.532
X9.2976Y-0.8906
X9.3102Y-2.235
X9.3571Y-1.7926
X9.3571Y-2.3202
X9.3629Y-1.4823
X9.3822Y-2.437
X9.3822Y-2.6383
X9.3822Y-3.0249
X9.448Y-0.638
X9.4603Y-3.4257
X9.4686Y-1.5997
X9.5053Y-0.7726
X9.5219Y-3.3826
X9.5731Y-2.2718
X9.5751Y-3.1707
X9.5805Y-0.7531
X9.6244Y-3.8208
X9.637Y-3.3102
X9.6493Y-2.6399
X9.6813Y-0.8584
X9.6991Y-2.3308
X9.7087Y-3.8305
X9.7677Y-1.5449
X9.7683Y-1.4847
X9.896Y-3.0263
X9.9204Y-2.7258
X9.9795Y-3.1159
X10.0226Y-1.5202
X10.1056Y-3.8771
X10.114Y-1.5777
X10.1442Y-2.5808
X10.1595Y-2.2937
X10.1645Y-3.7752
X10.1741Y-3.0814
X10.2322Y-3.0203
X10.2832Y-0.744
X10.3062Y-1.7505
X10.3435Y-0.9426
X10.35Y-0.316
X10.3914Y-2.2729
X10.46Y-0.184
X10.4757Y-2.3277
X10.4795Y-1.5243
X10.491Y-1.5833
X10.5313Y-0.9092
X10.5508Y-3.8102
X10.625Y-3.8305
X10.6311Y-3.1231
X10.6466Y-3.0225
X10.6978Y-0.8336
X10.7003Y-3.7726
X10.751Y-0.1212
X10.8597Y-1.5275
X10.899Y-2.2715
X10.9485Y-2.3565
X10.9485Y-2.8884
X10.9661Y-1.6437
X11.0226Y-2.4306
X11.0552Y-3.1199
X11.0978Y-3.7772
X11.1361Y-1.8106
X11.1549Y-3.8324
X11.2049Y-3.0824
X11.2173Y-3.5924
X11.314Y-3.272
X11.3305Y-3.376
X11.346Y-3.506
X11.3591Y-1.5068
X11.362Y-3.602
X11.3702Y-1.5555
X11.3818Y-0.7722
X11.4807Y-0.832
X11.5215Y-3.468
X11.6349Y-2.2724
X11.6485Y-1.5206
X11.6649Y-3.0324
X11.6756Y-4.0196
X11.6907Y-2.3327
X11.7096Y-3.0816
X11.8157Y-1.5859
X11.9021Y-2.587
X11.9154Y-0.8321
X11.9272Y-0.7703
X12.112Y-2.2735
X12.1176Y-4.0691
X12.1549Y-3.9599
X12.1762Y-4.1319
X12.1874Y-2.3299
X12.3074Y-3.2099
X12.3074Y-3.3725
X12.3247Y-1.5825
X12.3259Y-4.071
X12.3387Y-1.5272
X12.4228Y-4.0201
X12.4289Y-3.2705
X12.4372Y-3.9597
X12.458Y-0.544
X12.4677Y-4.186
X12.486Y-0.978
X12.5865Y-1.2645
X12.62Y-1.122
X12.6313Y-1.6661
X12.6896Y-1.0065
X12.823Y-0.9528
X12.8574Y-3.2224
X12.9024Y-3.9574
X12.9261Y-4.0389
X13.0143Y-1.4903
X13.0166Y-0.8181
X13.0783Y-1.8199
X13.12Y-2.6875
X13.12Y-2.8696
X13.12Y-3.3475
X13.1373Y-2.3208
X13.1684Y-2.3494
X13.1993Y-2.1399
X13.1993Y-2.3013
X13.2298Y-4.0193
X13.5474Y-3.138
X13.612Y-4.0199
X13.71Y-0.554
X13.7348Y-3.3475
X13.7621Y-2.7826
X13.802Y-0.488
X13.9495Y-0.5135
X13.9495Y-0.594
X13.978Y-0.364
T3
X6.594Y-0.1406
X6.594Y-0.2406
X6.594Y-0.3406
X6.694Y-0.1406
X6.694Y-0.2406
X6.694Y-0.3406
X13.147Y-0.321
X13.147Y-0.8918
X13.2454Y-0.8918
X13.335Y-1.2131
X13.335Y-1.784
X13.3439Y-0.321
X13.3439Y-0.8918
X13.4334Y-1.784
X13.522Y-2.1098
X13.522Y-2.6807
X13.5319Y-1.2131
X13.5319Y-1.784
X13.6204Y-2.6807
X13.7189Y-2.1098
X13.7189Y-2.6807
T4
X0.432Y-3.4892
X0.5959Y-1.9879
X0.682Y-3.3892
X0.784Y-1.988
X0.8068Y-2.7382
X0.8268Y-0.4882
X0.8459Y-1.8879
X0.8504Y-1.238
X1.034Y-1.888
X1.0568Y-2.6382
X1.0768Y-0.3882
X1.1004Y-1.138
X1.3698Y-3.4902
X1.5768Y-0.4884
X1.6198Y-3.3902
X1.7872Y-1.2376
X1.815Y-1.9878
X1.8268Y-0.3884
X2.0258Y-2.7378
X2.0372Y-1.1376
X2.065Y-1.8878
X2.2758Y-2.6378
X2.3102Y-0.4042
X2.5602Y-0.3042
X2.6191Y-1.186
X2.6467Y-1.958
X2.8573Y-2.7698
X2.8844Y-1.1402
X2.912Y-1.9122
X2.9815Y-3.5618
X3.1226Y-2.724
X3.1415Y-0.5308
X3.2468Y-3.516
X3.3527Y-1.3418
X3.3805Y-2.1142
X3.4068Y-0.485
X3.5909Y-2.9252
X3.618Y-1.296
X3.6458Y-2.0684
X3.8562Y-2.8794
X3.8753Y-0.6866
X4.0859Y-1.4978
X4.1139Y-2.2702
X4.1406Y-0.6408
X4.3245Y-3.0818
X4.3512Y-1.452
X4.3792Y-2.2244
X4.4481Y-3.875
X4.5898Y-3.036
X4.6089Y-0.8422
X4.7134Y-3.8292
X4.8199Y-1.6538
X4.8475Y-2.4264
X4.8742Y-0.7964
X5.0576Y-3.2375
X5.0852Y-1.608
X5.1128Y-2.3806
X5.3229Y-3.1917
X5.3423Y-0.9986
X5.6076Y-0.9528
X6.3937Y-1.795
X6.5217Y-3.3018
X6.6041Y-0.984
X6.6174Y-1.6452
X6.7329Y-2.4904
X6.7454Y-3.152
X6.8278Y-0.8342
X6.9566Y-2.3406
X7.1267Y-1.639
X7.2547Y-3.1458
X7.3205Y-3.8988
X7.3377Y-0.8284
X7.3504Y-1.4892
X7.4663Y-2.3338
X7.4784Y-2.996
X7.5442Y-3.749
X7.5614Y-0.6786
X7.69Y-2.184
X7.8607Y-1.4832
X7.9887Y-2.9896
X8.0713Y-0.6732
X8.0844Y-1.3334
X8.1997Y-2.1784
X8.2124Y-2.8398
X8.295Y-0.5234
X8.4234Y-2.0286
X8.5941Y-1.3278
X8.6049Y-3.6258
X8.7225Y-2.8338
X8.8055Y-0.5168
X8.8178Y-1.178
X8.8286Y-3.476
X8.9337Y-2.0228
X8.9462Y-2.684
X9.0292Y-0.367
X9.1574Y-1.873
X9.4186Y-1.1978
X9.547Y-2.7396
X9.6294Y-0.405
X9.6686Y-1.0978
X9.7582Y-1.9892
X9.797Y-2.6396
X9.8146Y-3.49
X9.8794Y-0.305
X10.0082Y-1.8892
X10.0646Y-3.39
X10.1518Y-1.2396
X10.2972Y-2.7394
X10.3628Y-0.4896
X10.4018Y-1.1396
X10.5078Y-1.9892
X10.5472Y-2.6394
X10.6128Y-0.3896
X10.7521Y-3.49
X10.7578Y-1.8892
X10.9024Y-1.2394
X11.0021Y-3.39
X11.1136Y-0.4894
X11.1524Y-1.1394
X11.3276Y-2.7388
X11.3636Y-0.3894
X11.4872Y-0.489
X11.5776Y-2.6388
X11.7262Y-1.9894
X11.7372Y-0.389
X11.7833Y-3.6775
X11.8414Y-1.2388
X11.8622Y-0.4894
X11.9762Y-1.8894
X12.0333Y-3.5775
X12.0914Y-1.1388
X12.1122Y-0.3894
X12.5333Y-2.9275
X12.5333Y-3.6775
X12.7833Y-2.8275
X12.7833Y-3.5775
X13.0984Y-0.4914
X13.2833Y-3.6775
X13.2844Y-1.3914
X13.3484Y-0.3914
X13.4724Y-2.2914
X13.5333Y-3.5775
X13.5344Y-1.2914
X13.7224Y-2.1914
T2
G00X5.8518Y0.2377
M15
G01X5.8518Y0.1924
M16
G05
G00X5.8518Y0.0566
M15
G01X5.8518Y0.0113
M16
G05
G00X6.2908Y0.2377
M15
G01X6.2908Y0.1924
M16
G05
G00X6.2908Y0.0566
M15
G01X6.2908Y0.0113
M16
G05
T0
M30
