M48
; DRILL file {KiCad (5.1.9)-1} date 07/09/21 19:50:10
; FORMAT={-:-/ absolute / inch / decimal}
; #@! TF.CreationDate,2021-07-09T19:50:10+09:00
; #@! TF.GenerationSoftware,Kicad,Pcbnew,(5.1.9)-1
; #@! TF.FileFunction,NonPlated,1,2,NPTH
FMAT,2
INCH
T1C0.0157
T2C0.0591
T3C0.0689
T4C0.1200
T5C0.1570
%
G90
G05
T1
X5.9237Y0.0308
X6.219Y0.0308
T3
X0.382Y-3.5892
X0.5459Y-2.0879
X0.734Y-2.088
X0.7568Y-2.8382
X0.7768Y-0.5882
X0.782Y-3.5892
X0.8004Y-1.338
X0.9459Y-2.0879
X1.134Y-2.088
X1.1568Y-2.8382
X1.1768Y-0.5882
X1.2004Y-1.338
X1.3198Y-3.5902
X1.5268Y-0.5884
X1.7198Y-3.5902
X1.7372Y-1.3376
X1.765Y-2.0878
X1.9268Y-0.5884
X1.9758Y-2.8378
X2.1372Y-1.3376
X2.165Y-2.0878
X2.2602Y-0.5042
X2.3758Y-2.8378
X2.5494Y-1.2734
X2.577Y-2.0454
X2.6602Y-0.5042
X2.7876Y-2.8572
X2.9118Y-3.6492
X2.9406Y-1.3566
X2.9682Y-2.1286
X3.0718Y-0.6182
X3.1788Y-2.9404
X3.283Y-1.4292
X3.303Y-3.7324
X3.3108Y-2.2016
X3.463Y-0.7014
X3.5212Y-3.0126
X3.6742Y-1.5124
X3.702Y-2.2848
X3.8056Y-0.774
X3.9124Y-3.0958
X4.0162Y-1.5852
X4.0442Y-2.3576
X4.1968Y-0.8572
X4.2548Y-3.1692
X4.3784Y-3.9624
X4.4074Y-1.6684
X4.4354Y-2.4408
X4.5392Y-0.9296
X4.646Y-3.2524
X4.7502Y-1.7412
X4.7696Y-4.0456
X4.7778Y-2.5138
X4.9304Y-1.0128
X4.9879Y-3.3249
X5.1414Y-1.8244
X5.169Y-2.597
X5.2726Y-1.086
X5.3791Y-3.4081
X5.6638Y-1.1692
X6.3656Y-1.9032
X6.4936Y-3.41
X6.576Y-1.0922
X6.7048Y-2.5986
X6.7568Y-1.82
X6.8848Y-3.3268
X6.9672Y-1.009
X7.096Y-2.5154
X7.0986Y-1.7472
X7.2266Y-3.254
X7.2924Y-4.007
X7.3096Y-0.9366
X7.4382Y-2.442
X7.4898Y-1.664
X7.6178Y-3.1708
X7.6836Y-3.9238
X7.7008Y-0.8534
X7.8294Y-2.3588
X7.8326Y-1.5914
X7.9606Y-3.0978
X8.0432Y-0.7814
X8.1716Y-2.2866
X8.2238Y-1.5082
X8.3518Y-3.0146
X8.4344Y-0.6982
X8.5628Y-2.2034
X8.566Y-1.436
X8.5768Y-3.734
X8.6944Y-2.942
X8.7774Y-0.625
X8.9056Y-2.131
X8.9572Y-1.3528
X8.968Y-3.6508
X9.0856Y-2.8588
X9.1686Y-0.5418
X9.2968Y-2.0478
X9.3686Y-1.2978
X9.497Y-2.8396
X9.5794Y-0.505
X9.7082Y-2.0892
X9.7646Y-3.59
X9.7686Y-1.2978
X9.897Y-2.8396
X9.9794Y-0.505
X10.1018Y-1.3396
X10.1082Y-2.0892
X10.1646Y-3.59
X10.2472Y-2.8394
X10.3128Y-0.5896
X10.4578Y-2.0892
X10.5018Y-1.3396
X10.6472Y-2.8394
X10.7021Y-3.59
X10.7128Y-0.5896
X10.8524Y-1.3394
X10.8578Y-2.0892
X11.0636Y-0.5894
X11.1021Y-3.59
X11.2524Y-1.3394
X11.2776Y-2.8388
X11.4372Y-0.589
X11.4636Y-0.5894
X11.6762Y-2.0894
X11.6776Y-2.8388
X11.7333Y-3.7775
X11.7914Y-1.3388
X11.8122Y-0.5894
X11.8372Y-0.589
X12.0762Y-2.0894
X12.1333Y-3.7775
X12.1914Y-1.3388
X12.2122Y-0.5894
X12.4833Y-3.0275
X12.4833Y-3.7775
X12.8833Y-3.0275
X12.8833Y-3.7775
X13.0484Y-0.5914
X13.2333Y-3.7775
X13.2344Y-1.4914
X13.4224Y-2.3914
X13.4484Y-0.5914
X13.6333Y-3.7775
X13.6344Y-1.4914
X13.8224Y-2.3914
T4
X0.488Y-3.1132
X1.4255Y-3.1132
X4.0583Y-4.1755
X4.9753Y-4.3704
X7.0867Y-4.3318
X8.0037Y-4.1369
X11.1684Y-0.864
X11.4074Y-2.3644
X12.1059Y-0.864
X12.3449Y-2.3644
T5
X0.488Y-2.5132
X0.582Y-3.5892
X0.7459Y-2.0879
X0.934Y-2.088
X0.9568Y-2.8382
X0.9768Y-0.5882
X1.0004Y-1.338
X1.4255Y-2.5132
X1.5198Y-3.5902
X1.7268Y-0.5884
X1.9372Y-1.3376
X1.965Y-2.0878
X2.1758Y-2.8378
X2.4602Y-0.5042
X2.745Y-1.315
X2.7726Y-2.087
X2.9832Y-2.8988
X3.1074Y-3.6908
X3.2674Y-0.6598
X3.4786Y-1.4708
X3.5064Y-2.2432
X3.7168Y-3.0542
X4.0012Y-0.8156
X4.1831Y-3.5886
X4.2118Y-1.6268
X4.2398Y-2.3992
X4.4504Y-3.2108
X4.574Y-4.004
X4.7348Y-0.9712
X4.9458Y-1.7828
X4.9734Y-2.5554
X5.1001Y-3.7836
X5.1835Y-3.3665
X5.4682Y-1.1276
X6.5612Y-1.8616
X6.6892Y-3.3684
X6.7716Y-1.0506
X6.9004Y-2.557
X6.9619Y-3.745
X7.2942Y-1.7056
X7.4222Y-3.2124
X7.488Y-3.9654
X7.5052Y-0.895
X7.6338Y-2.4004
X7.8789Y-3.55
X8.0282Y-1.5498
X8.1562Y-3.0562
X8.2388Y-0.7398
X8.3672Y-2.245
X8.7616Y-1.3944
X8.7724Y-3.6924
X8.89Y-2.9004
X8.973Y-0.5834
X9.1012Y-2.0894
X9.5686Y-1.2978
X9.697Y-2.8396
X9.7794Y-0.505
X9.9082Y-2.0892
X9.9646Y-3.59
X10.3018Y-1.3396
X10.4472Y-2.8394
X10.5128Y-0.5896
X10.6578Y-2.0892
X10.9021Y-3.59
X11.0524Y-1.3394
X11.1684Y-0.264
X11.2636Y-0.5894
X11.4074Y-1.7644
X11.4776Y-2.8388
X11.6372Y-0.589
X11.8762Y-2.0894
X11.9333Y-3.7775
X11.9914Y-1.3388
X12.0122Y-0.5894
X12.1059Y-0.264
X12.3449Y-1.7644
X12.6833Y-3.0275
X12.6833Y-3.7775
X13.2484Y-0.5914
X13.4333Y-3.7775
X13.4344Y-1.4914
X13.6224Y-2.3914
T2
G00X13.025Y-0.6221
M15
G01X13.025Y-0.571
M16
G05
G00X13.213Y-1.5143
M15
G01X13.213Y-1.4631
M16
G05
G00X13.4Y-2.411
M15
G01X13.4Y-2.3598
M16
G05
G00X13.4659Y-0.6221
M15
G01X13.4659Y-0.571
M16
G05
G00X13.6539Y-1.5143
M15
G01X13.6539Y-1.4631
M16
G05
G00X13.8409Y-2.411
M15
G01X13.8409Y-2.3598
M16
G05
T0
M30
